<?xml version="1.0" encoding="utf-8"?>
<svg xmlns="http://www.w3.org/2000/svg" viewBox="0 0 50 50" width="20" height="20">
  <path d="M44.988281 7.984375C44.726563 7.992188 44.476563 8.101563 44.292969 8.292969L25 27.585938L5.707031 8.292969C5.519531 8.097656 5.261719 7.992188 4.992188 7.992188C4.582031 7.992188 4.21875 8.238281 4.0625 8.613281C3.910156 8.992188 4 9.421875 4.292969 9.707031L25 30.414063L45.707031 9.707031C46.003906 9.421875 46.09375 8.980469 45.9375 8.601563C45.777344 8.222656 45.402344 7.976563 44.988281 7.984375 Z M 44.988281 20.984375C44.726563 20.992188 44.476563 21.101563 44.292969 21.292969L25 40.585938L5.707031 21.292969C5.519531 21.097656 5.261719 20.992188 4.992188 20.988281C4.582031 20.992188 4.21875 21.238281 4.0625 21.613281C3.910156 21.992188 4 22.421875 4.292969 22.707031L25 43.414063L45.707031 22.707031C46.003906 22.421875 46.09375 21.980469 45.9375 21.601563C45.777344 21.222656 45.402344 20.976563 44.988281 20.984375Z" fill="#FFF" />
</svg>