<?xml version="1.0" encoding="utf-8"?>
<svg xmlns="http://www.w3.org/2000/svg" viewBox="0 0 50 50" width="40" height="40">
  <path d="M23.59375 1.03125C22.125 1.03125 21.097656 2.199219 20.375 3.21875C19.707031 4.15625 18.621094 4.1875 16.59375 4.1875C15.515625 4.1875 14.132813 4.289063 13.28125 4.90625C14.550781 7.035156 16.207031 8.621094 17.71875 9.03125C18.519531 9.25 19.164063 9.105469 19.75 8.625C20.722656 7.703125 21.800781 6.710938 23.125 6.8125C24.066406 6.878906 24.898438 7.457031 25.875 8.6875C26.050781 8.902344 26.300781 9.011719 26.59375 9.03125C27.113281 9.066406 27.757813 8.757813 28.3125 8.25C28.898438 7.726563 29.574219 7.191406 30.28125 6.625C31.425781 5.707031 33.457031 4.085938 33.78125 3.3125C33.484375 3.132813 33.074219 3 32.5 3C31.707031 3 30.9375 3.195313 30.1875 3.375C29.546875 3.527344 28.949219 3.65625 28.4375 3.65625C27.984375 3.65625 27.652344 3.558594 27.40625 3.3125C25.867188 1.710938 24.734375 1.03125 23.59375 1.03125 Z M 34.34375 5.78125C33.574219 6.554688 32.589844 7.339844 31.53125 8.1875C30.863281 8.722656 30.203125 9.265625 29.65625 9.75C28.691406 10.632813 27.515625 11.105469 26.4375 11.03125C25.597656 10.972656 24.886719 10.589844 24.34375 9.9375C23.578125 8.96875 23.148438 8.796875 22.96875 8.78125C22.53125 8.769531 21.738281 9.515625 21.09375 10.125C20.289063 10.789063 19.371094 11.125 18.40625 11.125C18.003906 11.125 17.609375 11.050781 17.1875 10.9375C16.371094 10.714844 15.566406 10.261719 14.78125 9.65625C15.765625 10.703125 17.160156 12.5625 17.40625 15.15625C19.476563 16.4375 24.285156 18.601563 29.90625 15.4375C30.222656 15.257813 30.589844 15 31 14.71875C31.03125 14.695313 31.058594 14.679688 31.09375 14.65625C30.820313 10.941406 33 8.070313 33.28125 7.71875L33.375 7.59375C33.714844 7.058594 34.105469 6.425781 34.34375 5.78125 Z M 38.21875 12C36.261719 11.910156 34.515625 12.585938 33.09375 13.375C33.066406 13.683594 33.078125 13.988281 33.09375 14.3125C33.542969 14.496094 33.988281 14.722656 34.4375 14.9375C36.53125 15.945313 38.582031 17.324219 40.4375 19C40.460938 19.003906 40.476563 19 40.5 19C40.746094 19 40.992188 18.902344 41.1875 18.71875C41.589844 18.339844 41.597656 17.714844 41.21875 17.3125C39.496094 15.492188 37.371094 14.691406 35.28125 14.53125C36.929688 13.867188 38.859375 13.683594 41.03125 14.875C41.515625 15.140625 42.109375 14.953125 42.375 14.46875C42.640625 13.984375 42.453125 13.390625 41.96875 13.125C40.632813 12.394531 39.394531 12.054688 38.21875 12 Z M 32.4375 16.15625C32.332031 16.226563 32.226563 16.304688 32.125 16.375C31.664063 16.691406 31.269531 16.949219 30.90625 17.15625C28.445313 18.542969 26.097656 19.0625 24 19.0625C20.359375 19.0625 17.46875 17.574219 16.03125 16.65625C9.6875 19.375 4 27.308594 4 34.09375C4 45 11.070313 47 25 47C38.929688 47 46 45 46 34.09375C46 26.015625 39.257813 18.878906 32.4375 16.15625 Z M 23.5 22L25.3125 22L25.3125 24.09375C27.914063 24.59375 28.8125 26.40625 29.3125 28.40625L27.5 28.40625C27.199219 27.007813 26.304688 25.8125 24.40625 25.8125C21.707031 25.8125 21.40625 27.605469 21.40625 28.40625C21.40625 30.304688 23.195313 30.6875 25.09375 31.1875C27.492188 31.789063 29.90625 32.59375 29.90625 35.59375C29.90625 39.195313 26.710938 40.210938 25.3125 40.3125L25.3125 42L23.5 42L23.5 40.3125C22 40.011719 19.300781 39.085938 19 35.1875L20.8125 35.1875C20.8125 36.386719 21.605469 38.59375 24.40625 38.59375C27.105469 38.59375 27.8125 37.3125 27.8125 35.8125C27.8125 31.414063 19.40625 34.394531 19.40625 28.59375C19.40625 25.394531 22 24.199219 23.5 24Z" fill="#6C63FF" />
</svg>