<?xml version="1.0" encoding="utf-8"?>
<svg xmlns="http://www.w3.org/2000/svg" viewBox="0 0 50 50" width="40" height="40">
  <path d="M29.835938 50.019531C29.421875 50.019531 29.039063 49.765625 28.886719 49.371094C28.710938 48.929688 28.867188 48.425781 29.261719 48.15625C32.078125 46.234375 34.941406 41.824219 34.980469 36.300781C35.007813 32.363281 33.632813 26.421875 27.273438 19.699219C27.597656 28.074219 24.078125 35.132813 23.910156 35.460938C23.703125 35.875 23.246094 36.09375 22.796875 36C22.34375 35.90625 22.011719 35.523438 21.980469 35.066406C21.980469 35.027344 21.726563 31.734375 19.511719 28.992188C18.976563 30.742188 18.382813 32.136719 17.847656 33.402344C16.824219 35.804688 16.019531 37.703125 16.019531 40.945313C16.019531 43.421875 18.027344 46.332031 19.957031 47.867188C20.269531 48.042969 20.480469 48.375 20.480469 48.761719C20.480469 49.324219 20.023438 49.78125 19.457031 49.78125C19.449219 49.78125 19.445313 49.78125 19.4375 49.78125C19.328125 49.78125 19.214844 49.761719 19.105469 49.726563C11.285156 47.027344 6.980469 41.558594 6.980469 34.328125C6.980469 28.179688 9.796875 23.222656 12.777344 17.972656C15.460938 13.246094 18.503906 7.890625 20 0.789063C20.078125 0.433594 20.339844 0.140625 20.6875 0.0273438C21.039063 -0.0859375 21.421875 0.00390625 21.691406 0.253906C35.839844 13.320313 43.019531 22.164063 43.019531 34.210938C43.019531 42.136719 37.417969 48.929688 29.984375 50.011719C29.933594 50.019531 29.882813 50.019531 29.835938 50.019531Z" fill="#6C63FF" />
</svg>