<?xml version="1.0" encoding="utf-8"?>
<svg xmlns="http://www.w3.org/2000/svg" viewBox="0 0 24 24" width="40" height="40">
  <path d="M11 2L10.224609 5.4179688L7.5136719 8.4296875C7.1826719 8.7966875 7 9.2735781 7 9.7675781L7 19C7 20.105 7.895 21 9 21L17.03125 21C17.77225 21 18.443141 20.563719 18.744141 19.886719L21.746094 13.130859C21.913094 12.756859 22 12.351406 22 11.941406L22 11C22 9.9 21.1 9 20 9L13 9C13 9 14 6.6292813 14 4.8632812C14 2.1212813 11 2 11 2 z M 2 9L2 21L5 21L5 9L2 9 z" fill="#6C63FF" />
</svg>