<?xml version="1.0" encoding="utf-8"?>
<svg width="1600px" height="1200px" viewBox="0 0 1600 1200" version="1.1" xmlns:xlink="http://www.w3.org/1999/xlink" xmlns="http://www.w3.org/2000/svg">
  <g id="main-bg">
    <path d="M0 0L1600 0L1600 1200L0 1200L0 0Z" id="Rectangle" fill="#302E44" stroke="none" />
    <path d="M1470.97 624.927L1485.47 650.044Q1485.57 650.214 1485.66 650.388Q1485.75 650.563 1485.83 650.742Q1485.91 650.921 1485.98 651.104Q1486.06 651.286 1486.12 651.472Q1486.18 651.658 1486.24 651.847Q1486.29 652.036 1486.33 652.227Q1486.38 652.418 1486.41 652.611Q1486.45 652.805 1486.47 652.999Q1486.5 653.194 1486.52 653.39Q1486.53 653.585 1486.54 653.782Q1486.55 653.978 1486.54 654.174Q1486.54 654.37 1486.53 654.566Q1486.51 654.762 1486.49 654.957Q1486.47 655.152 1486.44 655.346Q1486.4 655.54 1486.36 655.732Q1486.32 655.924 1486.27 656.114Q1486.22 656.303 1486.16 656.49Q1486.1 656.677 1486.03 656.861Q1485.96 657.045 1485.88 657.225Q1485.81 657.405 1485.72 657.581Q1485.63 657.757 1485.54 657.929Q1485.44 658.101 1485.34 658.267Q1485.23 658.434 1485.12 658.595Q1485.01 658.757 1484.89 658.913Q1484.77 659.069 1484.64 659.218Q1484.52 659.368 1484.38 659.511Q1484.25 659.655 1484.11 659.791Q1483.97 659.928 1483.82 660.057Q1483.67 660.187 1483.52 660.309Q1483.36 660.431 1483.2 660.545Q1483.04 660.66 1482.88 660.766Q1482.71 660.872 1482.54 660.971L1457.43 675.472Q1457.26 675.57 1457.08 675.66Q1456.91 675.749 1456.73 675.83Q1456.55 675.911 1456.37 675.984Q1456.18 676.056 1456 676.119Q1455.81 676.182 1455.62 676.236Q1455.44 676.29 1455.24 676.334Q1455.05 676.379 1454.86 676.414Q1454.67 676.449 1454.47 676.475Q1454.28 676.5 1454.08 676.516Q1453.89 676.533 1453.69 676.539Q1453.49 676.545 1453.3 676.542Q1453.1 676.539 1452.9 676.526Q1452.71 676.513 1452.51 676.491Q1452.32 676.468 1452.13 676.436Q1451.93 676.404 1451.74 676.363Q1451.55 676.321 1451.36 676.271Q1451.17 676.22 1450.98 676.16Q1450.79 676.1 1450.61 676.031Q1450.43 675.961 1450.25 675.883Q1450.07 675.805 1449.89 675.718Q1449.71 675.632 1449.54 675.536Q1449.37 675.441 1449.2 675.337Q1449.04 675.233 1448.88 675.122Q1448.71 675.01 1448.56 674.89Q1448.4 674.771 1448.25 674.644Q1448.1 674.517 1447.96 674.382Q1447.82 674.248 1447.68 674.107Q1447.54 673.966 1447.41 673.818Q1447.28 673.671 1447.16 673.517Q1447.04 673.363 1446.93 673.203Q1446.81 673.044 1446.7 672.879Q1446.6 672.714 1446.5 672.544L1432 647.427Q1431.9 647.257 1431.81 647.083Q1431.72 646.908 1431.64 646.729Q1431.56 646.55 1431.49 646.368Q1431.42 646.185 1431.35 645.999Q1431.29 645.813 1431.24 645.624Q1431.18 645.435 1431.14 645.244Q1431.09 645.053 1431.06 644.86Q1431.02 644.666 1431 644.472Q1430.97 644.277 1430.95 644.081Q1430.94 643.886 1430.93 643.689Q1430.93 643.493 1430.93 643.297Q1430.93 643.1 1430.94 642.905Q1430.96 642.709 1430.98 642.514Q1431 642.318 1431.03 642.125Q1431.07 641.931 1431.11 641.739Q1431.15 641.547 1431.2 641.357Q1431.25 641.168 1431.31 640.981Q1431.37 640.794 1431.44 640.61Q1431.51 640.426 1431.59 640.246Q1431.67 640.066 1431.75 639.89Q1431.84 639.714 1431.93 639.542Q1432.03 639.371 1432.13 639.204Q1432.24 639.037 1432.35 638.876Q1432.46 638.714 1432.58 638.558Q1432.7 638.402 1432.83 638.253Q1432.95 638.103 1433.09 637.96Q1433.22 637.816 1433.36 637.68Q1433.5 637.543 1433.65 637.414Q1433.8 637.284 1433.95 637.162Q1434.11 637.04 1434.27 636.926Q1434.43 636.811 1434.59 636.705Q1434.76 636.599 1434.93 636.5L1460.04 622Q1460.21 621.901 1460.39 621.812Q1460.56 621.722 1460.74 621.641Q1460.92 621.56 1461.1 621.488Q1461.29 621.415 1461.47 621.352Q1461.66 621.289 1461.85 621.235Q1462.04 621.181 1462.23 621.137Q1462.42 621.092 1462.61 621.057Q1462.8 621.022 1463 620.996Q1463.19 620.971 1463.39 620.954Q1463.59 620.938 1463.78 620.932Q1463.98 620.926 1464.17 620.929Q1464.37 620.932 1464.57 620.945Q1464.76 620.958 1464.96 620.98Q1465.15 621.003 1465.35 621.035Q1465.54 621.067 1465.73 621.108Q1465.92 621.149 1466.11 621.2Q1466.3 621.251 1466.49 621.311Q1466.68 621.371 1466.86 621.44Q1467.04 621.51 1467.22 621.588Q1467.41 621.666 1467.58 621.753Q1467.76 621.84 1467.93 621.935Q1468.1 622.03 1468.27 622.134Q1468.43 622.238 1468.6 622.349Q1468.76 622.461 1468.91 622.581Q1469.07 622.7 1469.22 622.827Q1469.37 622.954 1469.51 623.089Q1469.65 623.223 1469.79 623.364Q1469.93 623.505 1470.06 623.653Q1470.19 623.8 1470.31 623.954Q1470.43 624.108 1470.55 624.268Q1470.66 624.427 1470.77 624.592Q1470.87 624.757 1470.97 624.927Z" id="Rectangle" fill="#867EE4" stroke="none" />
    <path d="M804.813 103.526L814.631 105.435Q814.824 105.472 815.015 105.519Q815.205 105.566 815.394 105.622Q815.582 105.678 815.767 105.744Q815.952 105.809 816.134 105.883Q816.316 105.958 816.493 106.041Q816.671 106.124 816.845 106.216Q817.018 106.308 817.187 106.408Q817.356 106.508 817.52 106.617Q817.684 106.725 817.842 106.841Q818 106.957 818.152 107.081Q818.305 107.205 818.451 107.337Q818.597 107.468 818.736 107.606Q818.876 107.744 819.008 107.889Q819.141 108.034 819.266 108.185Q819.391 108.337 819.509 108.494Q819.627 108.651 819.737 108.814Q819.846 108.977 819.948 109.145Q820.05 109.313 820.143 109.485Q820.236 109.658 820.321 109.835Q820.406 110.012 820.482 110.193Q820.558 110.375 820.625 110.559Q820.692 110.744 820.749 110.931Q820.807 111.119 820.856 111.309Q820.904 111.5 820.943 111.692Q820.982 111.884 821.012 112.079Q821.042 112.273 821.062 112.468Q821.082 112.663 821.093 112.859Q821.103 113.056 821.104 113.252Q821.105 113.448 821.096 113.644Q821.087 113.841 821.069 114.036Q821.05 114.232 821.023 114.426Q820.995 114.62 820.957 114.813L819.049 124.631Q819.011 124.824 818.964 125.015Q818.917 125.205 818.861 125.394Q818.805 125.582 818.74 125.767Q818.674 125.952 818.6 126.134Q818.526 126.316 818.442 126.493Q818.359 126.671 818.267 126.845Q818.176 127.018 818.075 127.187Q817.975 127.356 817.867 127.52Q817.758 127.684 817.642 127.842Q817.526 128 817.402 128.152Q817.278 128.305 817.147 128.451Q817.015 128.597 816.877 128.736Q816.739 128.876 816.594 129.008Q816.449 129.141 816.298 129.266Q816.147 129.391 815.989 129.509Q815.832 129.627 815.669 129.736Q815.507 129.846 815.339 129.948Q815.171 130.05 814.998 130.143Q814.825 130.236 814.648 130.321Q814.471 130.406 814.29 130.482Q814.109 130.558 813.924 130.625Q813.74 130.692 813.552 130.749Q813.364 130.807 813.174 130.856Q812.984 130.904 812.791 130.943Q812.599 130.983 812.405 131.012Q812.211 131.042 812.015 131.062Q811.82 131.082 811.624 131.093Q811.428 131.103 811.231 131.104Q811.035 131.105 810.839 131.096Q810.643 131.087 810.447 131.069Q810.252 131.05 810.057 131.023Q809.863 130.995 809.67 130.957L799.852 129.049Q799.659 129.011 799.469 128.964Q799.278 128.917 799.09 128.861Q798.902 128.805 798.716 128.74Q798.531 128.674 798.349 128.6Q798.168 128.526 797.99 128.442Q797.812 128.359 797.638 128.267Q797.465 128.176 797.296 128.075Q797.127 127.975 796.963 127.867Q796.799 127.758 796.641 127.642Q796.483 127.526 796.331 127.402Q796.178 127.278 796.032 127.147Q795.886 127.016 795.747 126.877Q795.607 126.739 795.475 126.594Q795.342 126.449 795.217 126.298Q795.092 126.147 794.974 125.99Q794.857 125.832 794.747 125.67Q794.637 125.507 794.535 125.339Q794.434 125.171 794.34 124.998Q794.247 124.825 794.162 124.648Q794.077 124.471 794.002 124.29Q793.926 124.109 793.859 123.924Q793.792 123.74 793.734 123.552Q793.676 123.364 793.628 123.174Q793.579 122.984 793.54 122.791Q793.501 122.599 793.471 122.405Q793.441 122.211 793.421 122.015Q793.401 121.82 793.391 121.624Q793.38 121.428 793.379 121.231Q793.379 121.035 793.387 120.839Q793.396 120.643 793.415 120.447Q793.433 120.252 793.461 120.057Q793.489 119.863 793.526 119.67L795.435 109.852Q795.472 109.659 795.519 109.469Q795.566 109.278 795.622 109.09Q795.678 108.902 795.744 108.716Q795.809 108.531 795.883 108.349Q795.958 108.168 796.041 107.99Q796.124 107.812 796.216 107.638Q796.308 107.465 796.408 107.296Q796.508 107.127 796.616 106.963Q796.725 106.8 796.841 106.641Q796.957 106.483 797.081 106.331Q797.205 106.178 797.336 106.032Q797.468 105.886 797.606 105.747Q797.744 105.607 797.889 105.475Q798.034 105.342 798.185 105.217Q798.336 105.092 798.494 104.974Q798.651 104.857 798.814 104.747Q798.977 104.637 799.144 104.535Q799.312 104.434 799.485 104.34Q799.658 104.247 799.835 104.162Q800.012 104.078 800.193 104.002Q800.374 103.926 800.559 103.859Q800.744 103.792 800.931 103.734Q801.119 103.676 801.309 103.628Q801.5 103.579 801.692 103.54Q801.884 103.501 802.078 103.471Q802.273 103.441 802.468 103.421Q802.663 103.401 802.859 103.391Q803.056 103.38 803.252 103.379Q803.448 103.379 803.644 103.387Q803.841 103.396 804.036 103.414Q804.232 103.433 804.426 103.461Q804.62 103.489 804.813 103.526Z" id="Rectangle-Copy-5" fill="#867EE4" stroke="none" />
    <path d="M871.247 145.564L871.248 145.562Q871.303 145.426 871.365 145.292Q871.427 145.158 871.495 145.028Q871.563 144.897 871.638 144.77Q871.712 144.643 871.793 144.52Q871.874 144.397 871.961 144.278Q872.047 144.159 872.14 144.044Q872.232 143.93 872.33 143.82Q872.428 143.71 872.531 143.605Q872.634 143.5 872.743 143.4Q872.851 143.3 872.964 143.206Q873.077 143.111 873.195 143.022Q873.312 142.934 873.434 142.851Q873.555 142.768 873.681 142.691Q873.807 142.614 873.936 142.544Q874.065 142.473 874.198 142.409Q874.331 142.345 874.466 142.287Q874.602 142.23 874.74 142.179Q874.878 142.128 875.019 142.084Q875.159 142.04 875.302 142.003Q875.444 141.966 875.588 141.936Q875.733 141.906 875.878 141.883Q876.024 141.86 876.17 141.845Q876.316 141.829 876.464 141.82Q876.61 141.812 876.758 141.811Q876.905 141.809 877.052 141.815Q877.199 141.821 877.346 141.834Q877.493 141.848 877.638 141.868Q877.784 141.888 877.929 141.916Q878.074 141.943 878.217 141.978Q878.36 142.012 878.501 142.054Q878.643 142.095 878.782 142.144Q878.921 142.192 879.057 142.247L879.059 142.248Q879.196 142.303 879.329 142.365Q879.463 142.427 879.594 142.495Q879.724 142.563 879.851 142.638Q879.978 142.713 880.101 142.793Q880.224 142.874 880.343 142.961Q880.463 143.047 880.577 143.14Q880.692 143.232 880.802 143.33Q880.912 143.428 881.017 143.531Q881.122 143.635 881.222 143.743Q881.321 143.851 881.416 143.964Q881.51 144.077 881.599 144.195Q881.688 144.312 881.771 144.434Q881.854 144.556 881.93 144.681Q882.007 144.807 882.078 144.936Q882.148 145.065 882.212 145.198Q882.277 145.331 882.334 145.466Q882.392 145.602 882.443 145.74Q882.493 145.878 882.537 146.019Q882.581 146.159 882.618 146.302Q882.655 146.444 882.685 146.589Q882.715 146.733 882.738 146.878Q882.761 147.024 882.777 147.17Q882.792 147.317 882.801 147.464Q882.809 147.611 882.811 147.758Q882.812 147.905 882.806 148.052Q882.8 148.199 882.787 148.346Q882.774 148.493 882.753 148.639Q882.733 148.784 882.706 148.929Q882.678 149.074 882.644 149.217Q882.609 149.36 882.568 149.501Q882.526 149.643 882.478 149.782Q882.429 149.921 882.374 150.057L882.373 150.059Q882.318 150.196 882.256 150.33Q882.195 150.463 882.126 150.594Q882.058 150.724 881.984 150.851Q881.909 150.978 881.828 151.101Q881.747 151.224 881.661 151.343Q881.574 151.462 881.482 151.577Q881.389 151.692 881.291 151.802Q881.193 151.912 881.09 152.017Q880.987 152.122 880.879 152.222Q880.77 152.322 880.657 152.416Q880.544 152.51 880.427 152.599Q880.309 152.688 880.187 152.771Q880.066 152.854 879.94 152.93Q879.814 153.007 879.685 153.078Q879.556 153.148 879.423 153.212Q879.291 153.277 879.155 153.334Q879.02 153.392 878.881 153.443Q878.743 153.493 878.603 153.537Q878.462 153.581 878.32 153.618Q878.177 153.655 878.033 153.685Q877.889 153.715 877.743 153.738Q877.598 153.761 877.451 153.777Q877.305 153.792 877.158 153.801Q877.011 153.81 876.864 153.811Q876.716 153.812 876.569 153.806Q876.422 153.8 876.275 153.787Q876.129 153.774 875.983 153.754Q875.837 153.733 875.692 153.706Q875.548 153.678 875.404 153.644Q875.261 153.609 875.12 153.568Q874.979 153.526 874.84 153.478Q874.701 153.429 874.564 153.374L874.562 153.373Q874.426 153.318 874.292 153.257Q874.158 153.195 874.028 153.126Q873.897 153.058 873.77 152.984Q873.643 152.909 873.52 152.828Q873.397 152.747 873.278 152.661Q873.159 152.574 873.044 152.482Q872.93 152.389 872.82 152.291Q872.71 152.193 872.605 152.09Q872.5 151.987 872.4 151.879Q872.3 151.77 872.206 151.657Q872.111 151.544 872.022 151.427Q871.933 151.309 871.851 151.188Q871.768 151.066 871.691 150.94Q871.614 150.815 871.544 150.685Q871.473 150.556 871.409 150.423Q871.345 150.291 871.287 150.155Q871.23 150.02 871.179 149.882Q871.128 149.743 871.084 149.603Q871.04 149.462 871.003 149.32Q870.966 149.177 870.936 149.033Q870.906 148.889 870.883 148.743Q870.86 148.598 870.845 148.451Q870.829 148.305 870.82 148.158Q870.812 148.011 870.811 147.864Q870.809 147.716 870.815 147.569Q870.821 147.422 870.834 147.275Q870.847 147.129 870.868 146.983Q870.888 146.837 870.916 146.692Q870.943 146.548 870.978 146.404Q871.012 146.261 871.054 146.12Q871.095 145.979 871.144 145.84Q871.192 145.701 871.247 145.564Z" id="Rectangle-Copy-7" fill="#867EE4" stroke="none" />
    <path d="M1498.25 686.564L1498.25 686.562Q1498.3 686.426 1498.36 686.292Q1498.43 686.158 1498.5 686.028Q1498.56 685.897 1498.64 685.77Q1498.71 685.643 1498.79 685.52Q1498.87 685.397 1498.96 685.278Q1499.05 685.159 1499.14 685.044Q1499.23 684.93 1499.33 684.82Q1499.43 684.71 1499.53 684.605Q1499.63 684.5 1499.74 684.4Q1499.85 684.3 1499.96 684.205Q1500.08 684.111 1500.19 684.022Q1500.31 683.933 1500.43 683.851Q1500.56 683.768 1500.68 683.691Q1500.81 683.614 1500.94 683.544Q1501.07 683.473 1501.2 683.409Q1501.33 683.345 1501.47 683.287Q1501.6 683.23 1501.74 683.179Q1501.88 683.128 1502.02 683.084Q1502.16 683.04 1502.3 683.003Q1502.44 682.966 1502.59 682.936Q1502.73 682.906 1502.88 682.883Q1503.02 682.86 1503.17 682.845Q1503.32 682.829 1503.46 682.82Q1503.61 682.812 1503.76 682.811Q1503.91 682.809 1504.05 682.815Q1504.2 682.821 1504.35 682.834Q1504.49 682.848 1504.64 682.868Q1504.78 682.888 1504.93 682.916Q1505.07 682.943 1505.22 682.978Q1505.36 683.012 1505.5 683.054Q1505.64 683.095 1505.78 683.144Q1505.92 683.192 1506.06 683.247L1506.06 683.248Q1506.2 683.303 1506.33 683.365Q1506.46 683.427 1506.59 683.495Q1506.72 683.563 1506.85 683.638Q1506.98 683.713 1507.1 683.793Q1507.22 683.874 1507.34 683.961Q1507.46 684.047 1507.58 684.14Q1507.69 684.232 1507.8 684.33Q1507.91 684.428 1508.02 684.531Q1508.12 684.634 1508.22 684.743Q1508.32 684.851 1508.42 684.964Q1508.51 685.077 1508.6 685.195Q1508.69 685.312 1508.77 685.434Q1508.85 685.556 1508.93 685.681Q1509.01 685.807 1509.08 685.936Q1509.15 686.065 1509.21 686.198Q1509.28 686.331 1509.33 686.466Q1509.39 686.602 1509.44 686.74Q1509.49 686.878 1509.54 687.019Q1509.58 687.159 1509.62 687.302Q1509.66 687.444 1509.69 687.589Q1509.71 687.733 1509.74 687.878Q1509.76 688.024 1509.78 688.17Q1509.79 688.317 1509.8 688.464Q1509.81 688.611 1509.81 688.758Q1509.81 688.905 1509.81 689.052Q1509.8 689.199 1509.79 689.346Q1509.77 689.493 1509.75 689.639Q1509.73 689.784 1509.71 689.929Q1509.68 690.074 1509.64 690.217Q1509.61 690.36 1509.57 690.502Q1509.53 690.643 1509.48 690.782Q1509.43 690.921 1509.37 691.057L1509.37 691.059Q1509.32 691.196 1509.26 691.33Q1509.19 691.463 1509.13 691.594Q1509.06 691.724 1508.98 691.851Q1508.91 691.978 1508.83 692.101Q1508.75 692.224 1508.66 692.343Q1508.57 692.463 1508.48 692.577Q1508.39 692.692 1508.29 692.802Q1508.19 692.912 1508.09 693.017Q1507.99 693.122 1507.88 693.222Q1507.77 693.321 1507.66 693.416Q1507.54 693.51 1507.43 693.599Q1507.31 693.688 1507.19 693.771Q1507.07 693.854 1506.94 693.93Q1506.81 694.007 1506.69 694.078Q1506.56 694.148 1506.42 694.212Q1506.29 694.277 1506.16 694.334Q1506.02 694.392 1505.88 694.443Q1505.74 694.493 1505.6 694.537Q1505.46 694.581 1505.32 694.618Q1505.18 694.655 1505.03 694.685Q1504.89 694.715 1504.74 694.738Q1504.6 694.761 1504.45 694.777Q1504.3 694.792 1504.16 694.801Q1504.01 694.809 1503.86 694.811Q1503.72 694.812 1503.57 694.806Q1503.42 694.8 1503.28 694.787Q1503.13 694.774 1502.98 694.753Q1502.84 694.733 1502.69 694.706Q1502.55 694.678 1502.4 694.644Q1502.26 694.609 1502.12 694.568Q1501.98 694.526 1501.84 694.478Q1501.7 694.429 1501.56 694.374L1501.56 694.373Q1501.43 694.318 1501.29 694.256Q1501.16 694.195 1501.03 694.126Q1500.9 694.058 1500.77 693.984Q1500.64 693.909 1500.52 693.828Q1500.4 693.747 1500.28 693.661Q1500.16 693.574 1500.04 693.482Q1499.93 693.389 1499.82 693.291Q1499.71 693.193 1499.6 693.09Q1499.5 692.987 1499.4 692.879Q1499.3 692.77 1499.21 692.657Q1499.11 692.544 1499.02 692.427Q1498.93 692.309 1498.85 692.188Q1498.77 692.066 1498.69 691.94Q1498.61 691.814 1498.54 691.685Q1498.47 691.556 1498.41 691.423Q1498.34 691.291 1498.29 691.155Q1498.23 691.02 1498.18 690.881Q1498.13 690.743 1498.08 690.603Q1498.04 690.462 1498 690.32Q1497.97 690.177 1497.94 690.033Q1497.91 689.889 1497.88 689.743Q1497.86 689.598 1497.84 689.451Q1497.83 689.305 1497.82 689.158Q1497.81 689.011 1497.81 688.864Q1497.81 688.716 1497.82 688.569Q1497.82 688.422 1497.83 688.275Q1497.85 688.129 1497.87 687.983Q1497.89 687.837 1497.92 687.692Q1497.94 687.548 1497.98 687.404Q1498.01 687.261 1498.05 687.12Q1498.1 686.979 1498.14 686.84Q1498.19 686.701 1498.25 686.564Z" id="Rectangle-Copy-8" fill="#AC8EEC" stroke="none" />
    <path d="M151.172 715.238L146.945 724.303Q146.862 724.481 146.77 724.654Q146.678 724.828 146.578 724.997Q146.478 725.166 146.37 725.33Q146.262 725.494 146.146 725.652Q146.03 725.81 145.906 725.963Q145.782 726.115 145.651 726.261Q145.52 726.408 145.382 726.547Q145.244 726.687 145.099 726.819Q144.954 726.952 144.803 727.078Q144.652 727.203 144.495 727.321Q144.338 727.439 144.175 727.549Q144.013 727.658 143.845 727.76Q143.677 727.862 143.504 727.956Q143.331 728.049 143.154 728.134Q142.977 728.219 142.796 728.295Q142.615 728.371 142.431 728.439Q142.246 728.506 142.059 728.564Q141.871 728.622 141.681 728.671Q141.491 728.719 141.298 728.759Q141.106 728.798 140.912 728.828Q140.718 728.858 140.522 728.878Q140.327 728.898 140.131 728.909Q139.935 728.92 139.739 728.921Q139.542 728.922 139.346 728.913Q139.15 728.905 138.954 728.887Q138.759 728.868 138.564 728.841Q138.37 728.813 138.177 728.776Q137.984 728.738 137.794 728.692Q137.603 728.645 137.415 728.589Q137.227 728.533 137.041 728.468Q136.856 728.403 136.674 728.329Q136.492 728.255 136.314 728.172L127.25 723.945Q127.072 723.862 126.898 723.77Q126.724 723.678 126.555 723.578Q126.386 723.478 126.222 723.37Q126.059 723.262 125.9 723.146Q125.742 723.03 125.589 722.906Q125.437 722.782 125.291 722.651Q125.144 722.52 125.005 722.382Q124.865 722.244 124.733 722.099Q124.6 721.954 124.475 721.803Q124.349 721.652 124.231 721.495Q124.113 721.338 124.003 721.175Q123.893 721.012 123.792 720.845Q123.69 720.677 123.596 720.504Q123.503 720.331 123.418 720.154Q123.333 719.977 123.257 719.796Q123.181 719.615 123.113 719.431Q123.046 719.246 122.988 719.059Q122.93 718.871 122.882 718.681Q122.833 718.491 122.793 718.298Q122.754 718.106 122.724 717.912Q122.694 717.718 122.674 717.522Q122.654 717.327 122.643 717.131Q122.632 716.935 122.631 716.739Q122.63 716.542 122.639 716.346Q122.647 716.15 122.665 715.954Q122.684 715.759 122.711 715.564Q122.739 715.37 122.776 715.177Q122.814 714.984 122.86 714.794Q122.907 714.603 122.963 714.415Q123.019 714.227 123.084 714.041Q123.149 713.856 123.223 713.674Q123.298 713.492 123.381 713.314L127.608 704.25Q127.691 704.072 127.782 703.898Q127.874 703.724 127.974 703.555Q128.074 703.386 128.182 703.222Q128.29 703.059 128.406 702.9Q128.522 702.742 128.646 702.589Q128.77 702.437 128.901 702.291Q129.032 702.145 129.17 702.005Q129.308 701.865 129.453 701.733Q129.598 701.6 129.749 701.474Q129.9 701.349 130.057 701.231Q130.214 701.114 130.377 701.003Q130.54 700.893 130.707 700.792Q130.875 700.69 131.048 700.596Q131.221 700.503 131.398 700.418Q131.575 700.333 131.756 700.257Q131.937 700.181 132.121 700.113Q132.306 700.046 132.493 699.988Q132.681 699.93 132.871 699.882Q133.061 699.833 133.254 699.793Q133.446 699.754 133.64 699.724Q133.834 699.694 134.03 699.674Q134.225 699.654 134.421 699.643Q134.617 699.632 134.813 699.631Q135.01 699.63 135.206 699.639Q135.402 699.647 135.598 699.665Q135.793 699.684 135.988 699.711Q136.182 699.739 136.375 699.776Q136.568 699.814 136.758 699.86Q136.949 699.907 137.137 699.963Q137.326 700.019 137.511 700.084Q137.696 700.149 137.878 700.223Q138.06 700.298 138.238 700.381L147.303 704.608Q147.48 704.691 147.654 704.782Q147.828 704.874 147.997 704.974Q148.166 705.074 148.33 705.182Q148.494 705.29 148.652 705.406Q148.81 705.522 148.963 705.646Q149.115 705.77 149.261 705.901Q149.408 706.032 149.547 706.17Q149.687 706.308 149.819 706.453Q149.952 706.598 150.078 706.749Q150.203 706.9 150.321 707.057Q150.439 707.214 150.549 707.377Q150.659 707.54 150.76 707.707Q150.862 707.875 150.956 708.048Q151.049 708.221 151.134 708.398Q151.219 708.575 151.295 708.756Q151.371 708.937 151.439 709.121Q151.506 709.306 151.564 709.493Q151.622 709.681 151.671 709.871Q151.719 710.061 151.759 710.254Q151.798 710.446 151.828 710.64Q151.858 710.834 151.878 711.03Q151.898 711.225 151.909 711.421Q151.92 711.617 151.921 711.813Q151.922 712.01 151.913 712.206Q151.905 712.402 151.887 712.598Q151.868 712.793 151.841 712.988Q151.813 713.182 151.776 713.375Q151.738 713.568 151.692 713.758Q151.645 713.949 151.589 714.137Q151.533 714.326 151.468 714.511Q151.403 714.696 151.329 714.878Q151.255 715.06 151.172 715.238Z" id="Rectangle-Copy-6" fill="#8E9EEC" stroke="none" />
    <path d="M400.654 702.009C559.976 693.091 695.405 581.594 730.103 426.565C748.446 344.605 737.841 252.548 654.016 170.73C504.169 24.4718 362.172 121.199 289.528 193.758C254.378 228.801 214.476 258.778 170.979 282.82C92.7471 326.162 -11.936 418.448 93.9057 573.163C170.62 685.302 294.53 707.95 400.654 702.009Z" id="Path" fill="#17162A" fill-opacity="0.11032831" fill-rule="evenodd" stroke="none" />
    <path d="M1158.73 1353.99C1301.81 1345.96 1423.45 1245.74 1454.63 1106.41C1471.12 1032.75 1461.6 950.016 1386.33 876.497C1251.78 745.072 1124.24 832.02 1058.99 897.238C1027.42 928.737 991.582 955.683 952.515 977.294C882.252 1016.26 788.226 1099.21 883.26 1238.24C952.141 1339.01 1063.42 1359.35 1158.73 1353.99Z" id="Path-Copy" fill="#17162A" fill-opacity="0.11032831" fill-rule="evenodd" stroke="none" />
  </g>
</svg>