<?xml version="1.0" encoding="utf-8"?>
<svg xmlns="http://www.w3.org/2000/svg" viewBox="0 0 50 50" width="40" height="40">
  <path d="M12 0C10.90625 0 10 0.90625 10 2L10 4L4 4C3.476563 4 2.945313 4.191406 2.570313 4.570313C2.191406 4.945313 2 5.476563 2 6L2 46C2 46.523438 2.191406 47.054688 2.570313 47.433594C2.945313 47.808594 3.476563 48 4 48L46 48C46.523438 48 47.054688 47.808594 47.433594 47.433594C47.808594 47.054688 48 46.523438 48 46L48 6C48 5.476563 47.808594 4.945313 47.433594 4.570313C47.054688 4.191406 46.523438 4 46 4L40 4L40 2C40 0.90625 39.09375 0 38 0L36 0C34.90625 0 34 0.90625 34 2L34 4L16 4L16 2C16 0.90625 15.09375 0 14 0 Z M 12 2L14 2L14 8L12 8 Z M 36 2L38 2L38 8L36 8 Z M 4 6L10 6L10 8C10 9.09375 10.90625 10 12 10L14 10C15.09375 10 16 9.09375 16 8L16 6L34 6L34 8C34 9.09375 34.90625 10 36 10L38 10C39.09375 10 40 9.09375 40 8L40 6L46 6L46 13L4 13 Z M 4 15L46 15L46 46L4 46 Z M 10 19L10 42L40 42L40 19 Z M 12 21L17 21L17 26L12 26 Z M 19 21L24 21L24 26L19 26 Z M 26 21L31 21L31 26L26 26 Z M 33 21L38 21L38 26L33 26 Z M 12 28L17 28L17 33L12 33 Z M 19 28L24 28L24 33L19 33 Z M 26 28L31 28L31 33L26 33 Z M 33 28L38 28L38 33L33 33 Z M 12 35L17 35L17 40L12 40 Z M 19 35L24 35L24 40L19 40 Z M 26 35L31 35L31 40L26 40 Z M 33 35L38 35L38 40L33 40Z" fill="#444444" />
</svg>