<?xml version="1.0" encoding="utf-8"?>
<svg xmlns="http://www.w3.org/2000/svg" viewBox="0 0 50 50" width="40" height="40">
  <path d="M25 1C16.160156 1 9 8.160156 9 17C9 24.308594 12.859375 32.164063 16.65625 38.25C20.453125 44.335938 24.25 48.65625 24.25 48.65625C24.441406 48.871094 24.714844 48.996094 25 48.996094C25.285156 48.996094 25.558594 48.871094 25.75 48.65625C25.75 48.65625 29.550781 44.246094 33.34375 38.125C37.136719 32.003906 41 24.167969 41 17C41 8.160156 33.839844 1 25 1 Z M 25 3C32.761719 3 39 9.238281 39 17C39 23.433594 35.363281 31.082031 31.65625 37.0625C28.550781 42.074219 25.921875 45.300781 25 46.40625C24.070313 45.308594 21.441406 42.152344 18.34375 37.1875C14.640625 31.25 11 23.589844 11 17C11 9.238281 17.238281 3 25 3 Z M 25 11C21.144531 11 18 14.144531 18 18C18 21.855469 21.144531 25 25 25C28.855469 25 32 21.855469 32 18C32 14.144531 28.855469 11 25 11 Z M 25 13C27.773438 13 30 15.226563 30 18C30 20.773438 27.773438 23 25 23C22.226563 23 20 20.773438 20 18C20 15.226563 22.226563 13 25 13Z" fill="#444444" />
</svg>