<?xml version="1.0" encoding="utf-8"?>
<svg xmlns="http://www.w3.org/2000/svg" viewBox="0 0 50 50" width="100" height="100">
  <path d="M12 0C10.90625 0 10 0.90625 10 2L10 4L4 4C2.839844 4 2 4.839844 2 6L2 13L48 13L48 6C48 4.839844 47.160156 4 46 4L40 4L40 2C40 0.90625 39.09375 0 38 0L36 0C34.90625 0 34 0.90625 34 2L34 4L16 4L16 2C16 0.90625 15.09375 0 14 0 Z M 12 2L14 2L14 8L12 8 Z M 36 2L38 2L38 8L36 8 Z M 2 15L2 46C2 47.160156 2.839844 48 4 48L46 48C47.160156 48 48 47.160156 48 46L48 15 Z M 12 21L17 21L17 26L12 26 Z M 19 21L24 21L24 26L19 26 Z M 26 21L31 21L31 26L26 26 Z M 33 21L38 21L38 26L33 26 Z M 12 28L17 28L17 33L12 33 Z M 19 28L24 28L24 33L19 33 Z M 26 28L31 28L31 33L26 33 Z M 33 28L38 28L38 33L33 33 Z M 12 35L17 35L17 40L12 40 Z M 19 35L24 35L24 40L19 40 Z M 26 35L31 35L31 40L26 40 Z M 33 35L38 35L38 40L33 40Z" fill="#031238" />
</svg>