<?xml version="1.0" encoding="utf-8"?>
<svg xmlns="http://www.w3.org/2000/svg" viewBox="0 0 50 50" width="500" height="500">
  <path d="M49.996094 27.941406C49.785156 24.382813 47.394531 23.25 45.648438 22.425781C44.738281 21.992188 43.949219 21.621094 43.664063 21.042969C43.621094 20.480469 43.625 20.027344 43.628906 19.511719L43.628906 19.433594C44.128906 18.851563 44.550781 17.902344 44.75 17.042969C45.191406 16.738281 45.652344 16.136719 45.800781 14.929688C45.871094 14.316406 45.730469 13.820313 45.503906 13.449219C45.847656 12.195313 46.390625 9.464844 45.246094 7.625C44.746094 6.816406 43.976563 6.277344 43.003906 6.046875C42.382813 5.367188 41.316406 5 39.933594 5L39.929688 5C37.785156 5.039063 36.203125 5.710938 35.226563 6.996094C34.117188 8.460938 33.878906 10.617188 34.515625 13.417969C34.277344 13.792969 34.125 14.304688 34.199219 14.933594C34.347656 16.144531 34.8125 16.746094 35.253906 17.046875C35.460938 17.898438 35.894531 18.851563 36.402344 19.4375L36.402344 19.515625C36.40625 20.027344 36.410156 20.480469 36.367188 21.039063C36.230469 21.289063 35.949219 21.511719 35.550781 21.726563C34.613281 19.179688 32.425781 18.171875 30.773438 17.410156C29.792969 16.960938 28.941406 16.566406 28.664063 16.039063C28.621094 15.480469 28.625 15.03125 28.628906 14.515625L28.632813 14.433594C29.128906 13.851563 29.554688 12.90625 29.753906 12.042969C30.191406 11.742188 30.65625 11.136719 30.800781 9.929688C30.875 9.320313 30.734375 8.820313 30.507813 8.449219C30.847656 7.195313 31.390625 4.464844 30.25 2.628906C29.746094 1.820313 28.976563 1.277344 28.007813 1.046875C27.515625 0.511719 26.613281 0.015625 24.933594 0.015625C22.785156 0.0585938 21.199219 0.726563 20.226563 2.011719C19.117188 3.472656 18.882813 5.625 19.519531 8.417969C19.28125 8.792969 19.128906 9.304688 19.203125 9.933594C19.347656 11.144531 19.8125 11.746094 20.257813 12.046875C20.460938 12.898438 20.898438 13.851563 21.402344 14.4375L21.402344 14.519531C21.40625 15.035156 21.410156 15.484375 21.367188 16.039063C21.089844 16.566406 20.234375 16.960938 19.25 17.410156C17.589844 18.171875 15.394531 19.179688 14.453125 21.726563C14.054688 21.511719 13.769531 21.289063 13.636719 21.039063C13.59375 20.476563 13.597656 20.023438 13.601563 19.503906L13.601563 19.4375C14.105469 18.851563 14.542969 17.898438 14.746094 17.046875C15.1875 16.742188 15.652344 16.140625 15.800781 14.929688C15.875 14.300781 15.722656 13.789063 15.484375 13.414063C16.121094 10.617188 15.882813 8.457031 14.773438 6.996094C13.796875 5.710938 12.214844 5.039063 10.050781 5C8.679688 5 7.617188 5.367188 6.996094 6.046875C6.023438 6.277344 5.253906 6.820313 4.75 7.628906C3.609375 9.464844 4.152344 12.195313 4.496094 13.449219C4.269531 13.820313 4.128906 14.320313 4.199219 14.933594C4.347656 16.140625 4.808594 16.742188 5.25 17.046875C5.449219 17.90625 5.871094 18.851563 6.371094 19.433594L6.371094 19.515625C6.375 20.03125 6.378906 20.484375 6.335938 21.046875C6.050781 21.621094 5.257813 21.996094 4.351563 22.425781C2.605469 23.25 0.214844 24.382813 0 28L0 39C0 39.066406 0.0078125 39.132813 0.0195313 39.199219C0.078125 39.492188 1.546875 46.015625 11.523438 49.289063C11.523438 49.289063 11.6875 49.433594 12.980469 49.585938C12.976563 49.144531 12.976563 48.410156 13.015625 47.683594C13.390625 44.03125 16.332031 42.839844 18.496094 41.960938C19.675781 41.484375 20.789063 41.03125 21.121094 40.382813C21.171875 39.765625 21.164063 39.265625 21.160156 38.699219L21.160156 38.585938C20.605469 37.957031 20.121094 36.898438 19.902344 35.960938C19.433594 35.652344 18.925781 35.015625 18.769531 33.703125C18.6875 33.027344 18.859375 32.480469 19.117188 32.085938C18.417969 29.050781 18.667969 26.714844 19.867188 25.136719C20.910156 23.761719 22.609375 23.039063 24.914063 23C26.410156 23 27.550781 23.394531 28.207031 24.128906C29.253906 24.371094 30.085938 24.949219 30.621094 25.8125C31.855469 27.800781 31.25 30.78125 30.878906 32.117188C31.128906 32.511719 31.289063 33.046875 31.210938 33.707031C31.050781 35.015625 30.546875 35.652344 30.074219 35.960938C29.859375 36.898438 29.390625 37.953125 28.847656 38.578125L28.84375 38.699219C28.839844 39.265625 28.835938 39.761719 28.882813 40.382813C29.21875 41.035156 30.328125 41.488281 31.5 41.960938C33.667969 42.84375 36.617188 44.042969 36.96875 47.683594C37.011719 48.214844 37 49.222656 36.992188 49.660156C37.933594 49.554688 37.992188 49.460938 37.992188 49.460938C48.425781 46.242188 49.917969 39.503906 49.980469 39.199219C49.992188 39.132813 50 39.066406 50 39Z" fill="#031238" />
</svg>