<?xml version="1.0" encoding="utf-8"?>
<svg xmlns="http://www.w3.org/2000/svg" viewBox="0 0 64 64" width="512" height="512">
  <path fill="#ed7899" d="M61,59.38c0,0.552-0.448,1-1,1H4c-0.552,0-1-0.448-1-1v-8c0.023-3.576,2.079-6.827,5.3-8.38 l14.07-6.73c2.55,3.21,5.91,5.5,9.63,5.5s7.08-2.29,9.63-5.5L55.7,43c3.231,1.558,5.289,4.823,5.3,8.41V59.38z" />
  <path fill="#f98cb3" d="M18.22,41.06L32,49l13.78-7.94c0.818-0.41,1.471-1.087,1.85-1.92l-6-2.87 c-2.55,3.21-5.91,5.5-9.63,5.5s-7.08-2.29-9.63-5.5l-6,2.87C16.749,39.973,17.402,40.65,18.22,41.06z" />
  <path fill="#e0678f" d="M57,56H7c-2.209,0-4,1.791-4,4l0,0c0,0.552,0.448,1,1,1h56c0.552,0,1-0.448,1-1l0,0 C61,57.791,59.209,56,57,56z" />
  <path fill="#f9e3ae" d="M19.07,28.13L19.07,28.13c-0.31,0-1.31-0.82-1.83-2.77s-0.05-3.27,0.19-3.33c0,0,1.9-0.33,1.92-0.71 c0.025-0.547,0.085-1.091,0.18-1.63c0.056-0.578,0.029-1.16-0.08-1.73c-0.264-1.801-0.308-3.628-0.13-5.44 c0.34-3.38,2.32-5.39,5.31-5.39c0.227-0.001,0.448-0.074,0.63-0.21C27.284,5.664,29.618,4.999,32,5h1.06c6.42,0,11,3.28,12.95,9.07 c-0.73-0.08-0.49,0.43-1,0.93s-1.78,0.7-1.3,2c0.581,1.368,0.919,2.826,1,4.31c0,0.38,1.9-0.29,1.92-0.29 c0.26,0.09,0.72,2.37,0.19,4.33c-0.543,1.483-1.376,2.842-2.45,4c0,0-2.2,3.89-2.73,4.76c-2.33,3.83-5.76,6.8-9.58,6.8 c-5.47,0-10.14-6.06-11.92-12.05C19.991,28.402,19.551,28.102,19.07,28.13z" />
  <path fill="#cda1a7" d="M19.35,21.31c0,0-0.84-2.48,0.17-2.71c2.935-0.692,5.315-2.833,6.31-5.68 c3.45,1.15,2.35,3.81,16.54,3.1c0.6,0,2,3.58,2.69,3.54c0.17,0,4.72,3.4-0.75,9.81c-1.28,1.5-2.75,4-2.56,5.63 c0.36,3.07,5.75,4.15,5.88,4.14c0.43,0,8.43-3.45,8.31-3.7c-4.08-8.49-7.47-19.29-7.1-19.64c0.64-0.61-0.89-2.46,0-2.36 C46.52,6.33,40.84,2.07,33,2.07L31,1c-7,0-14.45,6.13-14.87,10.26c-0.3,3-5.32,17.91-5.13,19.36c0,0-3,2.75-2.06,5.38 c4.34,3.13,11.25,2.32,14.06,0c0.58-0.48-3.75-7-5.44-8.37c-0.92-0.75-0.71-5.38-0.06-6.12C18.87,19.93,19.35,21.31,19.35,21.31z" />
  <path fill="#8d6c9f" d="M47 54c-.552 0-1 .448-1 1v2c0 .552.448 1 1 1s1-.448 1-1v-2C48 54.448 47.552 54 47 54zM52 54c-.552 0-1 .448-1 1v2c0 .552.448 1 1 1s1-.448 1-1v-2C53 54.448 52.552 54 52 54zM56 55v2c0 .552.448 1 1 1s1-.448 1-1v-2c0-.552-.448-1-1-1S56 54.448 56 55zM42 54c-.552 0-1 .448-1 1v2c0 .552.448 1 1 1s1-.448 1-1v-2C43 54.448 42.552 54 42 54zM37 54c-.552 0-1 .448-1 1v2c0 .552.448 1 1 1s1-.448 1-1v-2C38 54.448 37.552 54 37 54zM32 52c-.552 0-1 .448-1 1v4c0 .552.448 1 1 1s1-.448 1-1v-4C33 52.448 32.552 52 32 52zM27 54c-.552 0-1 .448-1 1v2c0 .552.448 1 1 1s1-.448 1-1v-2C28 54.448 27.552 54 27 54zM22 54c-.552 0-1 .448-1 1v2c0 .552.448 1 1 1s1-.448 1-1v-2C23 54.448 22.552 54 22 54zM17 54c-.552 0-1 .448-1 1v2c0 .552.448 1 1 1s1-.448 1-1v-2C18 54.448 17.552 54 17 54zM12 54c-.552 0-1 .448-1 1v2c0 .552.448 1 1 1s1-.448 1-1v-2C13 54.448 12.552 54 12 54zM7 54c-.552 0-1 .448-1 1v2c0 .552.448 1 1 1s1-.448 1-1v-2C8 54.448 7.552 54 7 54zM23.36 16.83c.461.304 1.081.178 1.386-.283.001-.002.003-.005.004-.007l1.6-2.43 1.56.76c2.866 1.396 6.012 2.124 9.2 2.13h2.55c.552 0 1-.448 1-1 0-.552-.448-1-1-1h-2.55c-2.883-.004-5.727-.66-8.32-1.92l-1.56-.76c-.905-.442-1.998-.142-2.55.7l-1.6 2.43C22.779 15.909 22.904 16.525 23.36 16.83z" />
  <path fill="#8d6c9f" d="M55.75,41.38L50.81,39c1.489-0.418,2.954-0.915,4.39-1.49c1.533-0.629,2.265-2.382,1.636-3.914 c-0.072-0.177-0.162-0.346-0.266-0.506l-1.86-2.85c-1.231-1.878-2.118-3.961-2.62-6.15l-2.27-9.89C48.141,6.82,41.786,1.439,34.23,1 c-1.012-0.664-2.199-1.012-3.41-1c-7.976-0.037-14.891,5.507-16.59,13.3l-2.45,11c-0.504,2.242-1.412,4.373-2.68,6.29l-1.66,2.52 c-0.914,1.382-0.536,3.243,0.846,4.157C8.448,37.375,8.62,37.466,8.8,37.54c1.423,0.564,2.875,1.051,4.35,1.46l-4.9,2.38 C4.44,43.218,2.013,47.07,2,51.3V59c0,1.657,1.343,3,3,3h54c1.657,0,3-1.343,3-3v-7.7C61.987,47.07,59.56,43.218,55.75,41.38z M9.57,35.69C9.294,35.573,9.084,35.338,9,35.05c-0.087-0.284-0.043-0.592,0.12-0.84l1.66-2.52c1.42-2.13,2.437-4.503,3-7l2.45-11 C17.743,6.85,23.814,1.985,30.82,2c0.891,0.003,1.758,0.294,2.47,0.83c0.162,0.122,0.357,0.192,0.56,0.2 c6.751,0.278,12.483,5.036,14,11.62l2.27,9.91c0.55,2.416,1.525,4.715,2.88,6.79l1.9,2.85c0.144,0.241,0.18,0.531,0.1,0.8 c-0.089,0.286-0.302,0.518-0.58,0.63c-2.086,0.82-4.228,1.489-6.41,2L42.48,35c1.059-1.643,1.906-3.414,2.52-5.27 c1.23-0.46,2.35-2,2.88-4c0.311-1.086,0.373-2.227,0.18-3.34c-0.102-1.036-0.797-1.918-1.78-2.26c-0.144-0.04-0.291-0.063-0.44-0.07 c-0.108-0.8-0.286-1.59-0.53-2.36c-0.168-0.527-0.733-0.818-1.26-0.65c-0.527,0.168-0.818,0.733-0.65,1.26 c0.337,1.009,0.539,2.058,0.6,3.12c0.028,0.552,0.498,0.976,1.05,0.948c0.174-0.009,0.344-0.063,0.49-0.158 c0.081-0.058,0.173-0.099,0.27-0.12c0.05,0,0.24,0.22,0.34,0.73c0.13,0.811,0.079,1.641-0.15,2.43c-0.49,1.84-1.44,2.62-1.73,2.62 l0,0c-0.456-0.02-0.868,0.273-1,0.71C41.59,34.26,37.18,40,32,40s-9.59-5.74-11.27-11.4c-0.132-0.437-0.544-0.73-1-0.71l0,0 c-0.29,0-1.24-0.78-1.73-2.62c-0.227-0.786-0.279-1.612-0.15-2.42c0.1-0.51,0.29-0.72,0.33-0.73l0,0 c0.098,0.018,0.191,0.059,0.27,0.12c0.461,0.304,1.081,0.176,1.385-0.285c0.103-0.156,0.16-0.338,0.165-0.525 c0.05-1.04,0.235-2.068,0.55-3.06c0.166-0.527-0.128-1.089-0.655-1.255c-0.527-0.166-1.089,0.128-1.255,0.655 c-0.24,0.764-0.414,1.547-0.52,2.34c-0.149,0.006-0.297,0.03-0.44,0.07c-0.983,0.342-1.678,1.224-1.78,2.26 c-0.193,1.113-0.131,2.254,0.18,3.34c0.54,2,1.66,3.5,2.88,4c0.63,1.841,1.491,3.595,2.56,5.22l-5.61,2.68 C13.751,37.172,11.632,36.507,9.57,35.69z M60,59c0,0.552-0.448,1-1,1H5c-0.552,0-1-0.448-1-1v-7.7c0-3.467,1.992-6.625,5.12-8.12 l13.58-6.5C25.16,39.79,28.4,42,32,42s6.84-2.21,9.3-5.31l13.58,6.5l0,0c3.125,1.493,5.116,4.647,5.12,8.11V59z" />
  <path fill="#8d6c9f" d="M21.49,43.86l10,6c0.309,0.179,0.691,0.179,1,0l10-6c0.511-0.21,0.754-0.795,0.543-1.306 c-0.21-0.511-0.795-0.754-1.306-0.543c-0.085,0.035-0.165,0.082-0.238,0.139L32,47.83l-9.49-5.69 c-0.434-0.342-1.063-0.267-1.404,0.167c-0.342,0.434-0.267,1.063,0.167,1.404c0.072,0.057,0.153,0.104,0.238,0.139L21.49,43.86z" />
</svg>