<?xml version="1.0" encoding="utf-8"?>
<svg xmlns="http://www.w3.org/2000/svg" viewBox="0 0 32 32" width="20" height="20">
  <path d="M15 3L15 5.0625C9.730469 5.539063 5.539063 9.730469 5.0625 15L3 15L3 17L5.0625 17C5.539063 22.269531 9.730469 26.460938 15 26.9375L15 29L17 29L17 26.96875C21.394531 26.574219 25.03125 23.566406 26.40625 19.53125L23.46875 21C22.027344 23.152344 19.699219 24.636719 17 24.9375L17 23L15 23L15 24.9375C10.847656 24.46875 7.53125 21.152344 7.0625 17L9 17L9 15L7.0625 15C7.53125 10.847656 10.847656 7.53125 15 7.0625L15 9L17 9L17 7.0625C19.699219 7.363281 22.027344 8.847656 23.46875 11L26.40625 12.46875C25.03125 8.433594 21.394531 5.425781 17 5.03125L17 3 Z M 23 13L24 16L23 19L29 16Z" fill="#031238" />
</svg>