<?xml version="1.0" encoding="utf-8"?>
<svg xmlns="http://www.w3.org/2000/svg" viewBox="0 0 24 24" width="96" height="96">
  <path d="M7.984375 3.9863281 A 1.0001 1.0001 0 0 0 7.8417969 4L5 4C3.9069372 4 3 4.9069372 3 6L3 8.8320312 A 1.0001 1.0001 0 0 0 3 9.1582031L3 12.832031 A 1.0001 1.0001 0 0 0 3 13.158203L3 16C3 17.093063 3.9069372 18 5 18L7.8320312 18 A 1.0001 1.0001 0 0 0 8.1582031 18L9.8496094 18L11.111328 20.457031 A 1.0001 1.0001 0 0 0 12.888672 20.457031L14.150391 18L15.832031 18 A 1.0001 1.0001 0 0 0 16.158203 18L19 18C20.093063 18 21 17.093063 21 16L21 13.167969 A 1.0001 1.0001 0 0 0 21 12.841797L21 9.1679688 A 1.0001 1.0001 0 0 0 21 8.8417969L21 6C21 4.9069372 20.093063 4 19 4L16.167969 4 A 1.0001 1.0001 0 0 0 15.841797 4L8.1679688 4 A 1.0001 1.0001 0 0 0 7.984375 3.9863281 z M 5 6L7 6L7 8L5 8L5 6 z M 9 6L15 6L15 8.8320312 A 1.0001 1.0001 0 0 0 15 9.1582031L15 10L9 10L9 9.1679688 A 1.0001 1.0001 0 0 0 9 8.8417969L9 6 z M 17 6L19 6L19 8L17 8L17 6 z M 5 10L7 10L7 10.832031 A 1.0001 1.0001 0 0 0 7 11.158203L7 12L5 12L5 10 z M 17 10L19 10L19 12L17 12L17 11.167969 A 1.0001 1.0001 0 0 0 17 10.841797L17 10 z M 9 12L15 12L15 12.832031 A 1.0001 1.0001 0 0 0 15 13.158203L15 16L13.539062 16 A 1.0001 1.0001 0 0 0 12.650391 16.542969L12 17.810547L11.349609 16.542969 A 1.0001 1.0001 0 0 0 10.460938 16L9 16L9 13.167969 A 1.0001 1.0001 0 0 0 9 12.841797L9 12 z M 5 14L7 14L7 16L5 16L5 14 z M 17 14L19 14L19 16L17 16L17 14 z" fill="#091941" />
</svg>