<?xml version="1.0" encoding="utf-8"?>
<svg xmlns="http://www.w3.org/2000/svg" viewBox="0 0 24 24" width="48" height="48">
  <path d="M12 2C11.172 2 10.5 2.672 10.5 3.5L10.5 4.1992188C7.920403 4.8702644 6 7.2170553 6 10L6 14.837891L5.2792969 17L4 17L4 19L10.269531 19 A 2 2 0 0 0 10 20 A 2 2 0 0 0 12 22 A 2 2 0 0 0 14 20 A 2 2 0 0 0 13.728516 19L20 19L20 17L18.720703 17L18 14.837891L18 10C18 7.2170553 16.079597 4.8702644 13.5 4.1992188L13.5 3.5C13.5 2.672 12.828 2 12 2 z M 12 6C14.220375 6 16 7.7796254 16 10L16 15.162109L16.611328 17L7.3886719 17L8 15.162109L8 10C8 7.7796254 9.7796254 6 12 6 z" fill="#091941" />
</svg>