<?xml version="1.0" encoding="utf-8"?>
<svg xmlns="http://www.w3.org/2000/svg" viewBox="0 0 50 50" width="500" height="500">
  <path d="M29.466,21.907l-5.001-1.104C19.072,19.613,17,17.818,17,15c0-3.572,2.75-6,8-6c4.375,0,7.237,2.032,8.258,4.958 c0.075,0.214,0.144,0.433,0.194,0.66c0.046,0.21,0.083,0.4,0.113,0.568c0.085,0.475,0.5,0.814,0.982,0.814H41 c0.277,0,0.543-0.115,0.731-0.319c0.189-0.203,0.286-0.476,0.266-0.752C41.443,7.196,34.701,2,25.219,2C14.92,2,8,7.491,8,15.663 c0,0,0,0,0,0c0,6.244,4.745,10.02,12.639,11.733l5.633,1.249C31.847,29.894,34,31.665,34,34.686C34,38.2,30.521,41,25.399,41 c-4.704,0-8.194-1.973-9.417-4.863c-0.204-0.515-0.346-0.996-0.44-1.37C15.428,34.318,15.031,34,14.569,34H8 c-0.279,0-0.547,0.117-0.736,0.323c-0.189,0.206-0.283,0.481-0.26,0.76C7.662,42.93,14.693,48,24.917,48C36.071,48,43,42.636,43,34 C43,27.61,38.294,23.824,29.466,21.907z" fill="#080D48" />
</svg>