<?xml version="1.0" encoding="utf-8"?>
<svg xmlns="http://www.w3.org/2000/svg" viewBox="0 0 32 32" width="96" height="96">
  <path d="M21 4C19.609375 4 18.242188 4.539063 17.1875 5.59375L7.8125 14.96875C4.839844 17.941406 4.839844 22.777344 7.8125 25.75C10.785156 28.722656 15.621094 28.722656 18.59375 25.75L24.84375 19.5L23.4375 18.09375L17.1875 24.34375C14.980469 26.550781 11.425781 26.550781 9.21875 24.34375C7.011719 22.136719 7.011719 18.582031 9.21875 16.375L18.59375 7C19.9375 5.65625 22.09375 5.65625 23.4375 7C24.78125 8.34375 24.78125 10.5 23.4375 11.84375L14.0625 21.21875C13.582031 21.699219 12.824219 21.699219 12.34375 21.21875C11.863281 20.738281 11.863281 19.980469 12.34375 19.5L20.9375 10.90625L19.53125 9.5L10.9375 18.09375C9.691406 19.339844 9.691406 21.378906 10.9375 22.625C12.183594 23.871094 14.222656 23.871094 15.46875 22.625L24.84375 13.25C26.953125 11.140625 26.953125 7.703125 24.84375 5.59375C23.789063 4.539063 22.390625 4 21 4Z" fill="#091941" />
</svg>