<?xml version="1.0" encoding="utf-8"?>
<svg xmlns="http://www.w3.org/2000/svg" viewBox="0 0 30 30" width="480" height="480">
  <path d="M14.986328 2 A 1.0001 1.0001 0 0 0 14.044922 2.7011719L9.84375 16.146484L8.6796875 13.490234L8.6796875 13.488281C7.8655223 11.629748 5.1027284 11.558215 4.1953125 13.373047L3.8828125 14L2 14 A 1.0001 1.0001 0 1 0 2 16L4.5 16 A 1.0001 1.0001 0 0 0 5.3945312 15.447266L5.984375 14.267578C6.1967197 13.842889 6.6570077 13.855028 6.8476562 14.291016L9.0839844 19.400391 A 1.0001 1.0001 0 0 0 10.955078 19.298828L14.429688 8.1835938L16.003906 27.083984 A 1.0001 1.0001 0 0 0 17.923828 27.384766L22.666016 16L25.271484 16 A 2 2 0 0 0 27 17 A 2 2 0 0 0 29 15 A 2 2 0 0 0 27 13 A 2 2 0 0 0 25.269531 14L22 14 A 1.0001 1.0001 0 0 0 21.076172 14.615234L17.654297 22.826172L15.996094 2.9160156 A 1.0001 1.0001 0 0 0 14.986328 2 z" fill="#0C0C0C" />
</svg>