<?xml version="1.0" encoding="utf-8"?>
<svg xmlns="http://www.w3.org/2000/svg" viewBox="0 0 32 32" width="512" height="512">
  <path d="M11 7C6.027344 7 2 11.027344 2 16C2 20.972656 6.027344 25 11 25C15.972656 25 20 20.972656 20 16C20 15.382813 19.933594 14.78125 19.8125 14.199219L19.765625 14L11 14L11 17L17 17C16.523438 19.835938 13.972656 22 11 22C7.6875 22 5 19.3125 5 16C5 12.6875 7.6875 10 11 10C12.5 10 13.867188 10.554688 14.921875 11.464844L17.070313 9.359375C15.46875 7.894531 13.339844 7 11 7 Z M 25 11L25 14L22 14L22 16L25 16L25 19L27 19L27 16L30 16L30 14L27 14L27 11Z" fill="#FFFFFF" />
</svg>